<mxfile host="app.diagrams.net" agent="Mozilla/5.0 (X11; Linux x86_64) AppleWebKit/537.36 (KHTML, like Gecko) Chrome/126.0.0.0 Safari/537.36" version="24.7.7">
  <diagram id="C5RBs43oDa-KdzZeNtuy" name="Page-1">
    <mxGraphModel dx="2056" dy="1742" grid="1" gridSize="10" guides="1" tooltips="1" connect="1" arrows="1" fold="1" page="1" pageScale="1" pageWidth="827" pageHeight="1169" math="0" shadow="0">
      <root>
        <mxCell id="WIyWlLk6GJQsqaUBKTNV-0" />
        <mxCell id="WIyWlLk6GJQsqaUBKTNV-1" parent="WIyWlLk6GJQsqaUBKTNV-0" />
        <mxCell id="b3Ar11hoiHgudYBqo-IY-4" value="Vehicle" style="swimlane;fontStyle=0;childLayout=stackLayout;horizontal=1;startSize=26;fillColor=none;horizontalStack=0;resizeParent=1;resizeParentMax=0;resizeLast=0;collapsible=1;marginBottom=0;whiteSpace=wrap;html=1;" parent="WIyWlLk6GJQsqaUBKTNV-1" vertex="1">
          <mxGeometry x="-20" y="60" width="140" height="220" as="geometry" />
        </mxCell>
        <mxCell id="b3Ar11hoiHgudYBqo-IY-5" value="+ vehicleNumber: String" style="text;strokeColor=none;fillColor=none;align=left;verticalAlign=top;spacingLeft=4;spacingRight=4;overflow=hidden;rotatable=0;points=[[0,0.5],[1,0.5]];portConstraint=eastwest;whiteSpace=wrap;html=1;" parent="b3Ar11hoiHgudYBqo-IY-4" vertex="1">
          <mxGeometry y="26" width="140" height="26" as="geometry" />
        </mxCell>
        <mxCell id="b3Ar11hoiHgudYBqo-IY-6" value="+ chasisNumber: String" style="text;strokeColor=none;fillColor=none;align=left;verticalAlign=top;spacingLeft=4;spacingRight=4;overflow=hidden;rotatable=0;points=[[0,0.5],[1,0.5]];portConstraint=eastwest;whiteSpace=wrap;html=1;" parent="b3Ar11hoiHgudYBqo-IY-4" vertex="1">
          <mxGeometry y="52" width="140" height="26" as="geometry" />
        </mxCell>
        <mxCell id="b3Ar11hoiHgudYBqo-IY-7" value="+ brand: String&lt;div&gt;+ model: String&lt;br&gt;&lt;/div&gt;&lt;div&gt;+ modelYeat: String&lt;/div&gt;&lt;div&gt;+ kmDriven: String&lt;/div&gt;&lt;div&gt;+ average: String&lt;/div&gt;&lt;div&gt;+ hourlyRent:int&lt;/div&gt;&lt;div&gt;+ dailyRent: int&lt;/div&gt;&lt;div&gt;+ status: vehicleStatus&lt;/div&gt;&lt;div&gt;+ List&amp;lt;Reservation&amp;gt;&lt;/div&gt;" style="text;strokeColor=none;fillColor=none;align=left;verticalAlign=top;spacingLeft=4;spacingRight=4;overflow=hidden;rotatable=0;points=[[0,0.5],[1,0.5]];portConstraint=eastwest;whiteSpace=wrap;html=1;" parent="b3Ar11hoiHgudYBqo-IY-4" vertex="1">
          <mxGeometry y="78" width="140" height="142" as="geometry" />
        </mxCell>
        <mxCell id="b3Ar11hoiHgudYBqo-IY-16" value="User" style="swimlane;fontStyle=0;childLayout=stackLayout;horizontal=1;startSize=26;fillColor=none;horizontalStack=0;resizeParent=1;resizeParentMax=0;resizeLast=0;collapsible=1;marginBottom=0;whiteSpace=wrap;html=1;" parent="WIyWlLk6GJQsqaUBKTNV-1" vertex="1">
          <mxGeometry x="170" y="65" width="140" height="100" as="geometry" />
        </mxCell>
        <mxCell id="b3Ar11hoiHgudYBqo-IY-17" value="+ name: String&lt;div&gt;+ licenseNumber: String&lt;/div&gt;&lt;div&gt;+ id:String&lt;/div&gt;&lt;div&gt;+ List&amp;lt;Reservation&amp;gt;&lt;/div&gt;" style="text;strokeColor=none;fillColor=none;align=left;verticalAlign=top;spacingLeft=4;spacingRight=4;overflow=hidden;rotatable=0;points=[[0,0.5],[1,0.5]];portConstraint=eastwest;whiteSpace=wrap;html=1;" parent="b3Ar11hoiHgudYBqo-IY-16" vertex="1">
          <mxGeometry y="26" width="140" height="74" as="geometry" />
        </mxCell>
        <mxCell id="b3Ar11hoiHgudYBqo-IY-175" style="edgeStyle=orthogonalEdgeStyle;rounded=0;orthogonalLoop=1;jettySize=auto;html=1;entryX=0.5;entryY=0;entryDx=0;entryDy=0;" parent="WIyWlLk6GJQsqaUBKTNV-1" source="b3Ar11hoiHgudYBqo-IY-20" target="b3Ar11hoiHgudYBqo-IY-30" edge="1">
          <mxGeometry relative="1" as="geometry" />
        </mxCell>
        <mxCell id="b3Ar11hoiHgudYBqo-IY-20" value="ReservationStatus" style="swimlane;fontStyle=0;childLayout=stackLayout;horizontal=1;startSize=26;fillColor=none;horizontalStack=0;resizeParent=1;resizeParentMax=0;resizeLast=0;collapsible=1;marginBottom=0;whiteSpace=wrap;html=1;" parent="WIyWlLk6GJQsqaUBKTNV-1" vertex="1">
          <mxGeometry x="490" y="30" width="140" height="110" as="geometry" />
        </mxCell>
        <mxCell id="b3Ar11hoiHgudYBqo-IY-23" value="+ IN_PROGRESS&lt;div&gt;+ UPCOMING_TRIP&lt;/div&gt;&lt;div&gt;+ COMPLETED&lt;/div&gt;&lt;div&gt;+ CANCEL&lt;/div&gt;" style="text;strokeColor=none;fillColor=none;align=left;verticalAlign=top;spacingLeft=4;spacingRight=4;overflow=hidden;rotatable=0;points=[[0,0.5],[1,0.5]];portConstraint=eastwest;whiteSpace=wrap;html=1;" parent="b3Ar11hoiHgudYBqo-IY-20" vertex="1">
          <mxGeometry y="26" width="140" height="84" as="geometry" />
        </mxCell>
        <mxCell id="b3Ar11hoiHgudYBqo-IY-174" style="edgeStyle=orthogonalEdgeStyle;rounded=0;orthogonalLoop=1;jettySize=auto;html=1;entryX=0;entryY=0.5;entryDx=0;entryDy=0;" parent="WIyWlLk6GJQsqaUBKTNV-1" source="b3Ar11hoiHgudYBqo-IY-24" target="b3Ar11hoiHgudYBqo-IY-6" edge="1">
          <mxGeometry relative="1" as="geometry" />
        </mxCell>
        <mxCell id="b3Ar11hoiHgudYBqo-IY-24" value="VehicleStatus" style="swimlane;fontStyle=0;childLayout=stackLayout;horizontal=1;startSize=26;fillColor=none;horizontalStack=0;resizeParent=1;resizeParentMax=0;resizeLast=0;collapsible=1;marginBottom=0;whiteSpace=wrap;html=1;" parent="WIyWlLk6GJQsqaUBKTNV-1" vertex="1">
          <mxGeometry x="-200" y="10" width="140" height="80" as="geometry" />
        </mxCell>
        <mxCell id="b3Ar11hoiHgudYBqo-IY-25" value="+ ACTIVE&lt;div&gt;+ INACTIVE&lt;/div&gt;&lt;div&gt;&lt;br&gt;&lt;/div&gt;" style="text;strokeColor=none;fillColor=none;align=left;verticalAlign=top;spacingLeft=4;spacingRight=4;overflow=hidden;rotatable=0;points=[[0,0.5],[1,0.5]];portConstraint=eastwest;whiteSpace=wrap;html=1;" parent="b3Ar11hoiHgudYBqo-IY-24" vertex="1">
          <mxGeometry y="26" width="140" height="54" as="geometry" />
        </mxCell>
        <mxCell id="b3Ar11hoiHgudYBqo-IY-30" value="Reservation" style="swimlane;fontStyle=0;childLayout=stackLayout;horizontal=1;startSize=26;fillColor=none;horizontalStack=0;resizeParent=1;resizeParentMax=0;resizeLast=0;collapsible=1;marginBottom=0;whiteSpace=wrap;html=1;" parent="WIyWlLk6GJQsqaUBKTNV-1" vertex="1">
          <mxGeometry x="450" y="200" width="220" height="200" as="geometry" />
        </mxCell>
        <mxCell id="b3Ar11hoiHgudYBqo-IY-31" value="+ Vehicle: vehicle&lt;div&gt;+ user: User&lt;/div&gt;&lt;div&gt;+ bookedFrom: DateTime&lt;/div&gt;&lt;div&gt;+ bookedTill: DateTime&lt;/div&gt;&lt;div&gt;+ reservationType: ReservationType&lt;/div&gt;&lt;div&gt;+ reservationStatus: reservationStatus&lt;/div&gt;&lt;div&gt;&lt;br&gt;&lt;/div&gt;&lt;div&gt;+ getReservationAmount():Long&lt;/div&gt;&lt;div&gt;+ updateStatus(reservationStatus)&lt;/div&gt;" style="text;strokeColor=none;fillColor=none;align=left;verticalAlign=top;spacingLeft=4;spacingRight=4;overflow=hidden;rotatable=0;points=[[0,0.5],[1,0.5]];portConstraint=eastwest;whiteSpace=wrap;html=1;" parent="b3Ar11hoiHgudYBqo-IY-30" vertex="1">
          <mxGeometry y="26" width="220" height="174" as="geometry" />
        </mxCell>
        <mxCell id="b3Ar11hoiHgudYBqo-IY-176" style="edgeStyle=orthogonalEdgeStyle;rounded=0;orthogonalLoop=1;jettySize=auto;html=1;" parent="WIyWlLk6GJQsqaUBKTNV-1" source="b3Ar11hoiHgudYBqo-IY-34" edge="1">
          <mxGeometry relative="1" as="geometry">
            <mxPoint x="35" y="290" as="targetPoint" />
          </mxGeometry>
        </mxCell>
        <mxCell id="b3Ar11hoiHgudYBqo-IY-34" value="VehicleInventory" style="swimlane;fontStyle=1;align=center;verticalAlign=top;childLayout=stackLayout;horizontal=1;startSize=26;horizontalStack=0;resizeParent=1;resizeParentMax=0;resizeLast=0;collapsible=1;marginBottom=0;whiteSpace=wrap;html=1;" parent="WIyWlLk6GJQsqaUBKTNV-1" vertex="1">
          <mxGeometry x="-70" y="370" width="210" height="130" as="geometry" />
        </mxCell>
        <mxCell id="b3Ar11hoiHgudYBqo-IY-35" value="List&amp;lt;Vehicle&amp;gt;" style="text;strokeColor=none;fillColor=none;align=left;verticalAlign=top;spacingLeft=4;spacingRight=4;overflow=hidden;rotatable=0;points=[[0,0.5],[1,0.5]];portConstraint=eastwest;whiteSpace=wrap;html=1;" parent="b3Ar11hoiHgudYBqo-IY-34" vertex="1">
          <mxGeometry y="26" width="210" height="26" as="geometry" />
        </mxCell>
        <mxCell id="b3Ar11hoiHgudYBqo-IY-36" value="" style="line;strokeWidth=1;fillColor=none;align=left;verticalAlign=middle;spacingTop=-1;spacingLeft=3;spacingRight=3;rotatable=0;labelPosition=right;points=[];portConstraint=eastwest;strokeColor=inherit;" parent="b3Ar11hoiHgudYBqo-IY-34" vertex="1">
          <mxGeometry y="52" width="210" height="8" as="geometry" />
        </mxCell>
        <mxCell id="b3Ar11hoiHgudYBqo-IY-37" value="+ addVehicle(Vehicle vehicle)&lt;div&gt;+ removeVehicle(vehicle vehicle)&lt;/div&gt;&lt;div&gt;+ getAllVehicles()&lt;/div&gt;&lt;div&gt;+ isVehicleAvailable(int id,from,to)&lt;/div&gt;" style="text;strokeColor=none;fillColor=none;align=left;verticalAlign=top;spacingLeft=4;spacingRight=4;overflow=hidden;rotatable=0;points=[[0,0.5],[1,0.5]];portConstraint=eastwest;whiteSpace=wrap;html=1;" parent="b3Ar11hoiHgudYBqo-IY-34" vertex="1">
          <mxGeometry y="60" width="210" height="70" as="geometry" />
        </mxCell>
        <mxCell id="b3Ar11hoiHgudYBqo-IY-38" value="RentalStore" style="swimlane;fontStyle=1;align=center;verticalAlign=top;childLayout=stackLayout;horizontal=1;startSize=26;horizontalStack=0;resizeParent=1;resizeParentMax=0;resizeLast=0;collapsible=1;marginBottom=0;whiteSpace=wrap;html=1;" parent="WIyWlLk6GJQsqaUBKTNV-1" vertex="1">
          <mxGeometry x="760" y="455" width="350" height="170" as="geometry" />
        </mxCell>
        <mxCell id="b3Ar11hoiHgudYBqo-IY-39" value="+ReservationService&lt;div&gt;+ VehicleService&lt;/div&gt;" style="text;strokeColor=none;fillColor=none;align=left;verticalAlign=top;spacingLeft=4;spacingRight=4;overflow=hidden;rotatable=0;points=[[0,0.5],[1,0.5]];portConstraint=eastwest;whiteSpace=wrap;html=1;" parent="b3Ar11hoiHgudYBqo-IY-38" vertex="1">
          <mxGeometry y="26" width="350" height="44" as="geometry" />
        </mxCell>
        <mxCell id="b3Ar11hoiHgudYBqo-IY-40" value="" style="line;strokeWidth=1;fillColor=none;align=left;verticalAlign=middle;spacingTop=-1;spacingLeft=3;spacingRight=3;rotatable=0;labelPosition=right;points=[];portConstraint=eastwest;strokeColor=inherit;" parent="b3Ar11hoiHgudYBqo-IY-38" vertex="1">
          <mxGeometry y="70" width="350" height="8" as="geometry" />
        </mxCell>
        <mxCell id="b3Ar11hoiHgudYBqo-IY-41" value="+&amp;nbsp;createReservation(User, Vehicle, DateTime, DateTime, ReservationType): Reservation&lt;div&gt;&lt;span style=&quot;background-color: initial;&quot;&gt;+ pay(reservation)&lt;/span&gt;&lt;div&gt;&lt;div&gt;+ cancelReservation(Reservation)&lt;/div&gt;&lt;div&gt;+ displayVehicles()&lt;/div&gt;&lt;div&gt;+ getVehicle(int id)&lt;/div&gt;&lt;/div&gt;&lt;/div&gt;" style="text;strokeColor=none;fillColor=none;align=left;verticalAlign=top;spacingLeft=4;spacingRight=4;overflow=hidden;rotatable=0;points=[[0,0.5],[1,0.5]];portConstraint=eastwest;whiteSpace=wrap;html=1;" parent="b3Ar11hoiHgudYBqo-IY-38" vertex="1">
          <mxGeometry y="78" width="350" height="92" as="geometry" />
        </mxCell>
        <mxCell id="b3Ar11hoiHgudYBqo-IY-58" style="edgeStyle=orthogonalEdgeStyle;rounded=0;orthogonalLoop=1;jettySize=auto;html=1;" parent="WIyWlLk6GJQsqaUBKTNV-1" source="b3Ar11hoiHgudYBqo-IY-48" edge="1">
          <mxGeometry relative="1" as="geometry">
            <mxPoint x="975" y="310" as="targetPoint" />
          </mxGeometry>
        </mxCell>
        <mxCell id="b3Ar11hoiHgudYBqo-IY-171" style="edgeStyle=orthogonalEdgeStyle;rounded=0;orthogonalLoop=1;jettySize=auto;html=1;" parent="WIyWlLk6GJQsqaUBKTNV-1" source="b3Ar11hoiHgudYBqo-IY-48" edge="1">
          <mxGeometry relative="1" as="geometry">
            <mxPoint x="680" y="240" as="targetPoint" />
          </mxGeometry>
        </mxCell>
        <mxCell id="b3Ar11hoiHgudYBqo-IY-48" value="&lt;p style=&quot;margin:0px;margin-top:4px;text-align:center;&quot;&gt;&lt;i&gt;&amp;lt;&amp;lt;Interface&amp;gt;&amp;gt;&lt;/i&gt;&lt;br&gt;&lt;b&gt;ReservationStrategy&lt;/b&gt;&lt;/p&gt;&lt;hr size=&quot;1&quot; style=&quot;border-style:solid;&quot;&gt;&lt;p style=&quot;margin:0px;margin-left:4px;&quot;&gt;+ calculateReservationAmount(Datetime to,Datetime from)&lt;/p&gt;" style="verticalAlign=top;align=left;overflow=fill;html=1;whiteSpace=wrap;" parent="WIyWlLk6GJQsqaUBKTNV-1" vertex="1">
          <mxGeometry x="850" y="200" width="250" height="80" as="geometry" />
        </mxCell>
        <mxCell id="b3Ar11hoiHgudYBqo-IY-50" value="HourlyReserveStartegy" style="swimlane;fontStyle=1;align=center;verticalAlign=top;childLayout=stackLayout;horizontal=1;startSize=26;horizontalStack=0;resizeParent=1;resizeParentMax=0;resizeLast=0;collapsible=1;marginBottom=0;whiteSpace=wrap;html=1;" parent="WIyWlLk6GJQsqaUBKTNV-1" vertex="1">
          <mxGeometry x="780" y="330" width="240" height="90" as="geometry" />
        </mxCell>
        <mxCell id="b3Ar11hoiHgudYBqo-IY-52" value="" style="line;strokeWidth=1;fillColor=none;align=left;verticalAlign=middle;spacingTop=-1;spacingLeft=3;spacingRight=3;rotatable=0;labelPosition=right;points=[];portConstraint=eastwest;strokeColor=inherit;" parent="b3Ar11hoiHgudYBqo-IY-50" vertex="1">
          <mxGeometry y="26" width="240" height="8" as="geometry" />
        </mxCell>
        <mxCell id="b3Ar11hoiHgudYBqo-IY-53" value="+calculateReservationAmount(Datetime to,Datetime from)" style="text;strokeColor=none;fillColor=none;align=left;verticalAlign=top;spacingLeft=4;spacingRight=4;overflow=hidden;rotatable=0;points=[[0,0.5],[1,0.5]];portConstraint=eastwest;whiteSpace=wrap;html=1;" parent="b3Ar11hoiHgudYBqo-IY-50" vertex="1">
          <mxGeometry y="34" width="240" height="56" as="geometry" />
        </mxCell>
        <mxCell id="b3Ar11hoiHgudYBqo-IY-54" value="DailyReserveStartegy" style="swimlane;fontStyle=1;align=center;verticalAlign=top;childLayout=stackLayout;horizontal=1;startSize=26;horizontalStack=0;resizeParent=1;resizeParentMax=0;resizeLast=0;collapsible=1;marginBottom=0;whiteSpace=wrap;html=1;" parent="WIyWlLk6GJQsqaUBKTNV-1" vertex="1">
          <mxGeometry x="1030" y="330" width="240" height="90" as="geometry" />
        </mxCell>
        <mxCell id="b3Ar11hoiHgudYBqo-IY-55" value="" style="line;strokeWidth=1;fillColor=none;align=left;verticalAlign=middle;spacingTop=-1;spacingLeft=3;spacingRight=3;rotatable=0;labelPosition=right;points=[];portConstraint=eastwest;strokeColor=inherit;" parent="b3Ar11hoiHgudYBqo-IY-54" vertex="1">
          <mxGeometry y="26" width="240" height="8" as="geometry" />
        </mxCell>
        <mxCell id="b3Ar11hoiHgudYBqo-IY-56" value="+ calculateReservationAmount(Datetime to,Datetime from)" style="text;strokeColor=none;fillColor=none;align=left;verticalAlign=top;spacingLeft=4;spacingRight=4;overflow=hidden;rotatable=0;points=[[0,0.5],[1,0.5]];portConstraint=eastwest;whiteSpace=wrap;html=1;" parent="b3Ar11hoiHgudYBqo-IY-54" vertex="1">
          <mxGeometry y="34" width="240" height="56" as="geometry" />
        </mxCell>
        <mxCell id="b3Ar11hoiHgudYBqo-IY-57" value="" style="endArrow=block;dashed=1;endFill=0;endSize=12;html=1;rounded=0;" parent="WIyWlLk6GJQsqaUBKTNV-1" edge="1">
          <mxGeometry width="160" relative="1" as="geometry">
            <mxPoint x="980" y="300" as="sourcePoint" />
            <mxPoint x="874" y="340" as="targetPoint" />
            <Array as="points">
              <mxPoint x="874" y="300" />
            </Array>
          </mxGeometry>
        </mxCell>
        <mxCell id="b3Ar11hoiHgudYBqo-IY-59" value="" style="endArrow=block;dashed=1;endFill=0;endSize=12;html=1;rounded=0;entryX=0.25;entryY=0;entryDx=0;entryDy=0;" parent="WIyWlLk6GJQsqaUBKTNV-1" target="b3Ar11hoiHgudYBqo-IY-54" edge="1">
          <mxGeometry width="160" relative="1" as="geometry">
            <mxPoint x="980" y="300" as="sourcePoint" />
            <mxPoint x="880" y="400" as="targetPoint" />
            <Array as="points">
              <mxPoint x="1090" y="300" />
            </Array>
          </mxGeometry>
        </mxCell>
        <mxCell id="b3Ar11hoiHgudYBqo-IY-130" value="&lt;p style=&quot;margin:0px;margin-top:4px;text-align:center;&quot;&gt;&lt;i&gt;&amp;lt;&amp;lt;Interface&amp;gt;&amp;gt;&lt;/i&gt;&lt;br&gt;&lt;b&gt;PaymentStrategy&lt;/b&gt;&lt;/p&gt;&lt;hr size=&quot;1&quot; style=&quot;border-style:solid;&quot;&gt;&lt;p style=&quot;margin:0px;margin-left:4px;&quot;&gt;&lt;br&gt;&lt;/p&gt;&lt;hr size=&quot;1&quot; style=&quot;border-style:solid;&quot;&gt;&lt;p style=&quot;margin:0px;margin-left:4px;&quot;&gt;+ pay(int): void&lt;/p&gt;" style="verticalAlign=top;align=left;overflow=fill;html=1;whiteSpace=wrap;" parent="WIyWlLk6GJQsqaUBKTNV-1" vertex="1">
          <mxGeometry x="890" y="-308" width="190" height="100" as="geometry" />
        </mxCell>
        <mxCell id="b3Ar11hoiHgudYBqo-IY-131" value="CreditCardPaymentStrategy" style="swimlane;fontStyle=1;align=center;verticalAlign=top;childLayout=stackLayout;horizontal=1;startSize=26;horizontalStack=0;resizeParent=1;resizeParentMax=0;resizeLast=0;collapsible=1;marginBottom=0;whiteSpace=wrap;html=1;" parent="WIyWlLk6GJQsqaUBKTNV-1" vertex="1">
          <mxGeometry x="750" y="-138" width="160" height="124" as="geometry" />
        </mxCell>
        <mxCell id="b3Ar11hoiHgudYBqo-IY-132" value="+ cardNum: String&lt;div&gt;+ cvv: int&lt;/div&gt;&lt;div&gt;+ expiryDate: Date&lt;div&gt;+ PaymentValidator&lt;/div&gt;&lt;/div&gt;" style="text;strokeColor=none;fillColor=none;align=left;verticalAlign=top;spacingLeft=4;spacingRight=4;overflow=hidden;rotatable=0;points=[[0,0.5],[1,0.5]];portConstraint=eastwest;whiteSpace=wrap;html=1;" parent="b3Ar11hoiHgudYBqo-IY-131" vertex="1">
          <mxGeometry y="26" width="160" height="64" as="geometry" />
        </mxCell>
        <mxCell id="b3Ar11hoiHgudYBqo-IY-133" value="" style="line;strokeWidth=1;fillColor=none;align=left;verticalAlign=middle;spacingTop=-1;spacingLeft=3;spacingRight=3;rotatable=0;labelPosition=right;points=[];portConstraint=eastwest;strokeColor=inherit;" parent="b3Ar11hoiHgudYBqo-IY-131" vertex="1">
          <mxGeometry y="90" width="160" height="8" as="geometry" />
        </mxCell>
        <mxCell id="b3Ar11hoiHgudYBqo-IY-134" value="+ pay(int): void" style="text;strokeColor=none;fillColor=none;align=left;verticalAlign=top;spacingLeft=4;spacingRight=4;overflow=hidden;rotatable=0;points=[[0,0.5],[1,0.5]];portConstraint=eastwest;whiteSpace=wrap;html=1;" parent="b3Ar11hoiHgudYBqo-IY-131" vertex="1">
          <mxGeometry y="98" width="160" height="26" as="geometry" />
        </mxCell>
        <mxCell id="b3Ar11hoiHgudYBqo-IY-135" value="BankPaymentStrategy" style="swimlane;fontStyle=1;align=center;verticalAlign=top;childLayout=stackLayout;horizontal=1;startSize=26;horizontalStack=0;resizeParent=1;resizeParentMax=0;resizeLast=0;collapsible=1;marginBottom=0;whiteSpace=wrap;html=1;" parent="WIyWlLk6GJQsqaUBKTNV-1" vertex="1">
          <mxGeometry x="940" y="-138" width="160" height="124" as="geometry" />
        </mxCell>
        <mxCell id="b3Ar11hoiHgudYBqo-IY-136" value="+ bankName: String&lt;div&gt;+ accoutNum: String&lt;/div&gt;&lt;div&gt;&lt;div&gt;+&amp;nbsp;&lt;span style=&quot;background-color: initial;&quot;&gt;PaymentValidator&lt;/span&gt;&lt;/div&gt;&lt;div&gt;&lt;br&gt;&lt;/div&gt;&lt;/div&gt;" style="text;strokeColor=none;fillColor=none;align=left;verticalAlign=top;spacingLeft=4;spacingRight=4;overflow=hidden;rotatable=0;points=[[0,0.5],[1,0.5]];portConstraint=eastwest;whiteSpace=wrap;html=1;" parent="b3Ar11hoiHgudYBqo-IY-135" vertex="1">
          <mxGeometry y="26" width="160" height="64" as="geometry" />
        </mxCell>
        <mxCell id="b3Ar11hoiHgudYBqo-IY-137" value="" style="line;strokeWidth=1;fillColor=none;align=left;verticalAlign=middle;spacingTop=-1;spacingLeft=3;spacingRight=3;rotatable=0;labelPosition=right;points=[];portConstraint=eastwest;strokeColor=inherit;" parent="b3Ar11hoiHgudYBqo-IY-135" vertex="1">
          <mxGeometry y="90" width="160" height="8" as="geometry" />
        </mxCell>
        <mxCell id="b3Ar11hoiHgudYBqo-IY-138" value="+ pay(int): void" style="text;strokeColor=none;fillColor=none;align=left;verticalAlign=top;spacingLeft=4;spacingRight=4;overflow=hidden;rotatable=0;points=[[0,0.5],[1,0.5]];portConstraint=eastwest;whiteSpace=wrap;html=1;" parent="b3Ar11hoiHgudYBqo-IY-135" vertex="1">
          <mxGeometry y="98" width="160" height="26" as="geometry" />
        </mxCell>
        <mxCell id="b3Ar11hoiHgudYBqo-IY-139" value="" style="endArrow=block;dashed=1;endFill=0;endSize=12;html=1;rounded=0;exitX=-0.009;exitY=0.64;exitDx=0;exitDy=0;exitPerimeter=0;entryX=0.599;entryY=-0.029;entryDx=0;entryDy=0;entryPerimeter=0;" parent="WIyWlLk6GJQsqaUBKTNV-1" source="b3Ar11hoiHgudYBqo-IY-130" target="b3Ar11hoiHgudYBqo-IY-131" edge="1">
          <mxGeometry width="160" relative="1" as="geometry">
            <mxPoint x="980" y="-138" as="sourcePoint" />
            <mxPoint x="1140" y="-138" as="targetPoint" />
            <Array as="points">
              <mxPoint x="850" y="-244" />
            </Array>
          </mxGeometry>
        </mxCell>
        <mxCell id="b3Ar11hoiHgudYBqo-IY-140" value="" style="endArrow=block;dashed=1;endFill=0;endSize=12;html=1;rounded=0;exitX=0.5;exitY=1;exitDx=0;exitDy=0;entryX=0.296;entryY=0.023;entryDx=0;entryDy=0;entryPerimeter=0;" parent="WIyWlLk6GJQsqaUBKTNV-1" source="b3Ar11hoiHgudYBqo-IY-130" target="b3Ar11hoiHgudYBqo-IY-135" edge="1">
          <mxGeometry width="160" relative="1" as="geometry">
            <mxPoint x="898" y="-234" as="sourcePoint" />
            <mxPoint x="856" y="-132" as="targetPoint" />
            <Array as="points" />
          </mxGeometry>
        </mxCell>
        <mxCell id="b3Ar11hoiHgudYBqo-IY-141" value="" style="endArrow=block;dashed=1;endFill=0;endSize=12;html=1;rounded=0;exitX=1;exitY=0.5;exitDx=0;exitDy=0;entryX=0.101;entryY=-0.023;entryDx=0;entryDy=0;entryPerimeter=0;" parent="WIyWlLk6GJQsqaUBKTNV-1" source="b3Ar11hoiHgudYBqo-IY-130" target="b3Ar11hoiHgudYBqo-IY-142" edge="1">
          <mxGeometry width="160" relative="1" as="geometry">
            <mxPoint x="995" y="-198" as="sourcePoint" />
            <mxPoint x="1130" y="-148" as="targetPoint" />
            <Array as="points">
              <mxPoint x="1110" y="-258" />
            </Array>
          </mxGeometry>
        </mxCell>
        <mxCell id="b3Ar11hoiHgudYBqo-IY-142" value="UPIPaymentStrategy" style="swimlane;fontStyle=1;align=center;verticalAlign=top;childLayout=stackLayout;horizontal=1;startSize=26;horizontalStack=0;resizeParent=1;resizeParentMax=0;resizeLast=0;collapsible=1;marginBottom=0;whiteSpace=wrap;html=1;" parent="WIyWlLk6GJQsqaUBKTNV-1" vertex="1">
          <mxGeometry x="1120" y="-138" width="160" height="124" as="geometry" />
        </mxCell>
        <mxCell id="b3Ar11hoiHgudYBqo-IY-143" value="+ UPIId: String&lt;div&gt;+ phone: String&lt;/div&gt;&lt;div&gt;&lt;div&gt;+ PaymentValidator&lt;br&gt;&lt;/div&gt;&lt;div&gt;&lt;br&gt;&lt;/div&gt;&lt;/div&gt;" style="text;strokeColor=none;fillColor=none;align=left;verticalAlign=top;spacingLeft=4;spacingRight=4;overflow=hidden;rotatable=0;points=[[0,0.5],[1,0.5]];portConstraint=eastwest;whiteSpace=wrap;html=1;" parent="b3Ar11hoiHgudYBqo-IY-142" vertex="1">
          <mxGeometry y="26" width="160" height="64" as="geometry" />
        </mxCell>
        <mxCell id="b3Ar11hoiHgudYBqo-IY-144" value="" style="line;strokeWidth=1;fillColor=none;align=left;verticalAlign=middle;spacingTop=-1;spacingLeft=3;spacingRight=3;rotatable=0;labelPosition=right;points=[];portConstraint=eastwest;strokeColor=inherit;" parent="b3Ar11hoiHgudYBqo-IY-142" vertex="1">
          <mxGeometry y="90" width="160" height="8" as="geometry" />
        </mxCell>
        <mxCell id="b3Ar11hoiHgudYBqo-IY-145" value="+ pay(int): void" style="text;strokeColor=none;fillColor=none;align=left;verticalAlign=top;spacingLeft=4;spacingRight=4;overflow=hidden;rotatable=0;points=[[0,0.5],[1,0.5]];portConstraint=eastwest;whiteSpace=wrap;html=1;" parent="b3Ar11hoiHgudYBqo-IY-142" vertex="1">
          <mxGeometry y="98" width="160" height="26" as="geometry" />
        </mxCell>
        <mxCell id="b3Ar11hoiHgudYBqo-IY-146" value="PaymentContext" style="swimlane;fontStyle=1;align=center;verticalAlign=top;childLayout=stackLayout;horizontal=1;startSize=26;horizontalStack=0;resizeParent=1;resizeParentMax=0;resizeLast=0;collapsible=1;marginBottom=0;whiteSpace=wrap;html=1;" parent="WIyWlLk6GJQsqaUBKTNV-1" vertex="1">
          <mxGeometry x="220" y="-266" width="160" height="88" as="geometry" />
        </mxCell>
        <mxCell id="b3Ar11hoiHgudYBqo-IY-147" value="+ currentDate: datetime&lt;div&gt;+ paymentInfo: String&lt;/div&gt;" style="text;strokeColor=none;fillColor=none;align=left;verticalAlign=top;spacingLeft=4;spacingRight=4;overflow=hidden;rotatable=0;points=[[0,0.5],[1,0.5]];portConstraint=eastwest;whiteSpace=wrap;html=1;" parent="b3Ar11hoiHgudYBqo-IY-146" vertex="1">
          <mxGeometry y="26" width="160" height="54" as="geometry" />
        </mxCell>
        <mxCell id="b3Ar11hoiHgudYBqo-IY-148" value="" style="line;strokeWidth=1;fillColor=none;align=left;verticalAlign=middle;spacingTop=-1;spacingLeft=3;spacingRight=3;rotatable=0;labelPosition=right;points=[];portConstraint=eastwest;strokeColor=inherit;" parent="b3Ar11hoiHgudYBqo-IY-146" vertex="1">
          <mxGeometry y="80" width="160" height="8" as="geometry" />
        </mxCell>
        <mxCell id="b3Ar11hoiHgudYBqo-IY-149" value="&lt;p style=&quot;margin:0px;margin-top:4px;text-align:center;&quot;&gt;&lt;i&gt;&amp;lt;&amp;lt;Interface&amp;gt;&amp;gt;&lt;/i&gt;&lt;br&gt;&lt;b&gt;PaymentValidatorStrategy&lt;/b&gt;&lt;/p&gt;&lt;hr size=&quot;1&quot; style=&quot;border-style:solid;&quot;&gt;&lt;p style=&quot;margin:0px;margin-left:4px;&quot;&gt;&lt;br&gt;&lt;/p&gt;&lt;hr size=&quot;1&quot; style=&quot;border-style:solid;&quot;&gt;&lt;p style=&quot;margin:0px;margin-left:4px;&quot;&gt;+ validate(PaymentContext)&lt;/p&gt;" style="verticalAlign=top;align=left;overflow=fill;html=1;whiteSpace=wrap;" parent="WIyWlLk6GJQsqaUBKTNV-1" vertex="1">
          <mxGeometry x="480" y="-288" width="190" height="100" as="geometry" />
        </mxCell>
        <mxCell id="b3Ar11hoiHgudYBqo-IY-150" value="Use" style="endArrow=open;endSize=12;dashed=1;html=1;rounded=0;" parent="WIyWlLk6GJQsqaUBKTNV-1" edge="1">
          <mxGeometry width="160" relative="1" as="geometry">
            <mxPoint x="380" y="-222.5" as="sourcePoint" />
            <mxPoint x="480" y="-222" as="targetPoint" />
          </mxGeometry>
        </mxCell>
        <mxCell id="b3Ar11hoiHgudYBqo-IY-151" value="CreditCardPaymentValidator" style="swimlane;fontStyle=1;align=center;verticalAlign=top;childLayout=stackLayout;horizontal=1;startSize=26;horizontalStack=0;resizeParent=1;resizeParentMax=0;resizeLast=0;collapsible=1;marginBottom=0;whiteSpace=wrap;html=1;" parent="WIyWlLk6GJQsqaUBKTNV-1" vertex="1">
          <mxGeometry x="230" y="-138" width="160" height="60" as="geometry" />
        </mxCell>
        <mxCell id="b3Ar11hoiHgudYBqo-IY-152" value="" style="line;strokeWidth=1;fillColor=none;align=left;verticalAlign=middle;spacingTop=-1;spacingLeft=3;spacingRight=3;rotatable=0;labelPosition=right;points=[];portConstraint=eastwest;strokeColor=inherit;" parent="b3Ar11hoiHgudYBqo-IY-151" vertex="1">
          <mxGeometry y="26" width="160" height="8" as="geometry" />
        </mxCell>
        <mxCell id="b3Ar11hoiHgudYBqo-IY-153" value="+ validate(PaymentContext)" style="text;strokeColor=none;fillColor=none;align=left;verticalAlign=top;spacingLeft=4;spacingRight=4;overflow=hidden;rotatable=0;points=[[0,0.5],[1,0.5]];portConstraint=eastwest;whiteSpace=wrap;html=1;" parent="b3Ar11hoiHgudYBqo-IY-151" vertex="1">
          <mxGeometry y="34" width="160" height="26" as="geometry" />
        </mxCell>
        <mxCell id="b3Ar11hoiHgudYBqo-IY-154" value="BankPaymentValidator" style="swimlane;fontStyle=1;align=center;verticalAlign=top;childLayout=stackLayout;horizontal=1;startSize=26;horizontalStack=0;resizeParent=1;resizeParentMax=0;resizeLast=0;collapsible=1;marginBottom=0;whiteSpace=wrap;html=1;" parent="WIyWlLk6GJQsqaUBKTNV-1" vertex="1">
          <mxGeometry x="400" y="-138" width="160" height="60" as="geometry" />
        </mxCell>
        <mxCell id="b3Ar11hoiHgudYBqo-IY-155" value="" style="line;strokeWidth=1;fillColor=none;align=left;verticalAlign=middle;spacingTop=-1;spacingLeft=3;spacingRight=3;rotatable=0;labelPosition=right;points=[];portConstraint=eastwest;strokeColor=inherit;" parent="b3Ar11hoiHgudYBqo-IY-154" vertex="1">
          <mxGeometry y="26" width="160" height="8" as="geometry" />
        </mxCell>
        <mxCell id="b3Ar11hoiHgudYBqo-IY-156" value="+ validate(PaymentContext)" style="text;strokeColor=none;fillColor=none;align=left;verticalAlign=top;spacingLeft=4;spacingRight=4;overflow=hidden;rotatable=0;points=[[0,0.5],[1,0.5]];portConstraint=eastwest;whiteSpace=wrap;html=1;" parent="b3Ar11hoiHgudYBqo-IY-154" vertex="1">
          <mxGeometry y="34" width="160" height="26" as="geometry" />
        </mxCell>
        <mxCell id="b3Ar11hoiHgudYBqo-IY-157" value="UPIPaymentValidator" style="swimlane;fontStyle=1;align=center;verticalAlign=top;childLayout=stackLayout;horizontal=1;startSize=26;horizontalStack=0;resizeParent=1;resizeParentMax=0;resizeLast=0;collapsible=1;marginBottom=0;whiteSpace=wrap;html=1;" parent="WIyWlLk6GJQsqaUBKTNV-1" vertex="1">
          <mxGeometry x="580" y="-138" width="160" height="60" as="geometry" />
        </mxCell>
        <mxCell id="b3Ar11hoiHgudYBqo-IY-158" value="" style="line;strokeWidth=1;fillColor=none;align=left;verticalAlign=middle;spacingTop=-1;spacingLeft=3;spacingRight=3;rotatable=0;labelPosition=right;points=[];portConstraint=eastwest;strokeColor=inherit;" parent="b3Ar11hoiHgudYBqo-IY-157" vertex="1">
          <mxGeometry y="26" width="160" height="8" as="geometry" />
        </mxCell>
        <mxCell id="b3Ar11hoiHgudYBqo-IY-159" value="+ validate(PaymentContext)" style="text;strokeColor=none;fillColor=none;align=left;verticalAlign=top;spacingLeft=4;spacingRight=4;overflow=hidden;rotatable=0;points=[[0,0.5],[1,0.5]];portConstraint=eastwest;whiteSpace=wrap;html=1;" parent="b3Ar11hoiHgudYBqo-IY-157" vertex="1">
          <mxGeometry y="34" width="160" height="26" as="geometry" />
        </mxCell>
        <mxCell id="b3Ar11hoiHgudYBqo-IY-160" value="" style="endArrow=block;dashed=1;endFill=0;endSize=12;html=1;rounded=0;exitX=0.111;exitY=1.008;exitDx=0;exitDy=0;exitPerimeter=0;entryX=0.688;entryY=0;entryDx=0;entryDy=0;entryPerimeter=0;" parent="WIyWlLk6GJQsqaUBKTNV-1" source="b3Ar11hoiHgudYBqo-IY-149" target="b3Ar11hoiHgudYBqo-IY-151" edge="1">
          <mxGeometry width="160" relative="1" as="geometry">
            <mxPoint x="650" y="-128" as="sourcePoint" />
            <mxPoint x="810" y="-128" as="targetPoint" />
            <Array as="points">
              <mxPoint x="420" y="-188" />
            </Array>
          </mxGeometry>
        </mxCell>
        <mxCell id="b3Ar11hoiHgudYBqo-IY-161" value="" style="endArrow=block;dashed=1;endFill=0;endSize=12;html=1;rounded=0;exitX=0.308;exitY=0.992;exitDx=0;exitDy=0;exitPerimeter=0;" parent="WIyWlLk6GJQsqaUBKTNV-1" source="b3Ar11hoiHgudYBqo-IY-149" target="b3Ar11hoiHgudYBqo-IY-154" edge="1">
          <mxGeometry width="160" relative="1" as="geometry">
            <mxPoint x="511" y="-177" as="sourcePoint" />
            <mxPoint x="350" y="-128" as="targetPoint" />
            <Array as="points">
              <mxPoint x="480" y="-189" />
            </Array>
          </mxGeometry>
        </mxCell>
        <mxCell id="b3Ar11hoiHgudYBqo-IY-162" value="" style="endArrow=block;dashed=1;endFill=0;endSize=12;html=1;rounded=0;exitX=0.658;exitY=0.96;exitDx=0;exitDy=0;exitPerimeter=0;entryX=0.171;entryY=0.02;entryDx=0;entryDy=0;entryPerimeter=0;" parent="WIyWlLk6GJQsqaUBKTNV-1" source="b3Ar11hoiHgudYBqo-IY-149" target="b3Ar11hoiHgudYBqo-IY-157" edge="1">
          <mxGeometry width="160" relative="1" as="geometry">
            <mxPoint x="521" y="-167" as="sourcePoint" />
            <mxPoint x="360" y="-118" as="targetPoint" />
            <Array as="points" />
          </mxGeometry>
        </mxCell>
        <mxCell id="b3Ar11hoiHgudYBqo-IY-163" value="Use" style="endArrow=open;endSize=12;dashed=1;html=1;rounded=0;exitX=0.999;exitY=0.32;exitDx=0;exitDy=0;exitPerimeter=0;entryX=0;entryY=0.5;entryDx=0;entryDy=0;" parent="WIyWlLk6GJQsqaUBKTNV-1" source="b3Ar11hoiHgudYBqo-IY-149" target="b3Ar11hoiHgudYBqo-IY-130" edge="1">
          <mxGeometry width="160" relative="1" as="geometry">
            <mxPoint x="650" y="-128" as="sourcePoint" />
            <mxPoint x="810" y="-128" as="targetPoint" />
          </mxGeometry>
        </mxCell>
        <mxCell id="b3Ar11hoiHgudYBqo-IY-164" value="has-a" style="text;html=1;align=center;verticalAlign=middle;resizable=0;points=[];autosize=1;strokeColor=none;fillColor=none;" parent="WIyWlLk6GJQsqaUBKTNV-1" vertex="1">
          <mxGeometry x="475" y="-330" width="50" height="30" as="geometry" />
        </mxCell>
        <mxCell id="b3Ar11hoiHgudYBqo-IY-168" style="edgeStyle=orthogonalEdgeStyle;rounded=0;orthogonalLoop=1;jettySize=auto;html=1;entryX=0.002;entryY=0.296;entryDx=0;entryDy=0;entryPerimeter=0;" parent="WIyWlLk6GJQsqaUBKTNV-1" source="b3Ar11hoiHgudYBqo-IY-17" target="b3Ar11hoiHgudYBqo-IY-31" edge="1">
          <mxGeometry relative="1" as="geometry" />
        </mxCell>
        <mxCell id="b3Ar11hoiHgudYBqo-IY-169" value="HAS-A" style="text;html=1;align=center;verticalAlign=middle;resizable=0;points=[];autosize=1;strokeColor=none;fillColor=none;" parent="WIyWlLk6GJQsqaUBKTNV-1" vertex="1">
          <mxGeometry x="310" y="100" width="60" height="30" as="geometry" />
        </mxCell>
        <mxCell id="b3Ar11hoiHgudYBqo-IY-172" value="HAS-A" style="text;html=1;align=center;verticalAlign=middle;resizable=0;points=[];autosize=1;strokeColor=none;fillColor=none;" parent="WIyWlLk6GJQsqaUBKTNV-1" vertex="1">
          <mxGeometry x="720" y="220" width="60" height="30" as="geometry" />
        </mxCell>
        <mxCell id="b3Ar11hoiHgudYBqo-IY-177" value="HAS-A" style="text;html=1;align=center;verticalAlign=middle;resizable=0;points=[];autosize=1;strokeColor=none;fillColor=none;" parent="WIyWlLk6GJQsqaUBKTNV-1" vertex="1">
          <mxGeometry x="10" y="298" width="60" height="30" as="geometry" />
        </mxCell>
        <mxCell id="b3Ar11hoiHgudYBqo-IY-182" style="edgeStyle=orthogonalEdgeStyle;rounded=0;orthogonalLoop=1;jettySize=auto;html=1;" parent="WIyWlLk6GJQsqaUBKTNV-1" source="b3Ar11hoiHgudYBqo-IY-178" target="b3Ar11hoiHgudYBqo-IY-130" edge="1">
          <mxGeometry relative="1" as="geometry">
            <Array as="points">
              <mxPoint x="1350" y="-258" />
            </Array>
          </mxGeometry>
        </mxCell>
        <mxCell id="b3Ar11hoiHgudYBqo-IY-178" value="PayMentManagerFactory" style="swimlane;fontStyle=1;align=center;verticalAlign=top;childLayout=stackLayout;horizontal=1;startSize=26;horizontalStack=0;resizeParent=1;resizeParentMax=0;resizeLast=0;collapsible=1;marginBottom=0;whiteSpace=wrap;html=1;" parent="WIyWlLk6GJQsqaUBKTNV-1" vertex="1">
          <mxGeometry x="1220" y="30" width="160" height="60" as="geometry" />
        </mxCell>
        <mxCell id="b3Ar11hoiHgudYBqo-IY-180" value="" style="line;strokeWidth=1;fillColor=none;align=left;verticalAlign=middle;spacingTop=-1;spacingLeft=3;spacingRight=3;rotatable=0;labelPosition=right;points=[];portConstraint=eastwest;strokeColor=inherit;" parent="b3Ar11hoiHgudYBqo-IY-178" vertex="1">
          <mxGeometry y="26" width="160" height="8" as="geometry" />
        </mxCell>
        <mxCell id="b3Ar11hoiHgudYBqo-IY-181" value="+ static pay()" style="text;strokeColor=none;fillColor=none;align=left;verticalAlign=top;spacingLeft=4;spacingRight=4;overflow=hidden;rotatable=0;points=[[0,0.5],[1,0.5]];portConstraint=eastwest;whiteSpace=wrap;html=1;" parent="b3Ar11hoiHgudYBqo-IY-178" vertex="1">
          <mxGeometry y="34" width="160" height="26" as="geometry" />
        </mxCell>
        <mxCell id="b3Ar11hoiHgudYBqo-IY-183" value="HAS-A" style="text;html=1;align=center;verticalAlign=middle;resizable=0;points=[];autosize=1;strokeColor=none;fillColor=none;" parent="WIyWlLk6GJQsqaUBKTNV-1" vertex="1">
          <mxGeometry x="1340" y="-123" width="60" height="30" as="geometry" />
        </mxCell>
        <mxCell id="b3Ar11hoiHgudYBqo-IY-187" value="ReservationType" style="swimlane;fontStyle=0;childLayout=stackLayout;horizontal=1;startSize=26;fillColor=none;horizontalStack=0;resizeParent=1;resizeParentMax=0;resizeLast=0;collapsible=1;marginBottom=0;whiteSpace=wrap;html=1;" parent="WIyWlLk6GJQsqaUBKTNV-1" vertex="1">
          <mxGeometry x="680" width="140" height="80" as="geometry" />
        </mxCell>
        <mxCell id="b3Ar11hoiHgudYBqo-IY-188" value="+ HOURLY&lt;div&gt;+ DAILY&lt;/div&gt;" style="text;strokeColor=none;fillColor=none;align=left;verticalAlign=top;spacingLeft=4;spacingRight=4;overflow=hidden;rotatable=0;points=[[0,0.5],[1,0.5]];portConstraint=eastwest;whiteSpace=wrap;html=1;" parent="b3Ar11hoiHgudYBqo-IY-187" vertex="1">
          <mxGeometry y="26" width="140" height="54" as="geometry" />
        </mxCell>
        <mxCell id="b3Ar11hoiHgudYBqo-IY-189" style="edgeStyle=orthogonalEdgeStyle;rounded=0;orthogonalLoop=1;jettySize=auto;html=1;entryX=0.893;entryY=0.019;entryDx=0;entryDy=0;entryPerimeter=0;" parent="WIyWlLk6GJQsqaUBKTNV-1" source="b3Ar11hoiHgudYBqo-IY-187" target="b3Ar11hoiHgudYBqo-IY-30" edge="1">
          <mxGeometry relative="1" as="geometry" />
        </mxCell>
        <mxCell id="b3Ar11hoiHgudYBqo-IY-190" value="ReservationService" style="swimlane;fontStyle=1;align=center;verticalAlign=top;childLayout=stackLayout;horizontal=1;startSize=26;horizontalStack=0;resizeParent=1;resizeParentMax=0;resizeLast=0;collapsible=1;marginBottom=0;whiteSpace=wrap;html=1;" parent="WIyWlLk6GJQsqaUBKTNV-1" vertex="1">
          <mxGeometry x="470" y="455" width="240" height="260" as="geometry" />
        </mxCell>
        <mxCell id="b3Ar11hoiHgudYBqo-IY-191" value="+ Map&amp;lt;UserId,List&amp;lt;Reservation&amp;gt;&amp;gt;&lt;div&gt;+&amp;nbsp;VehicleManager vehicleManager&lt;/div&gt;" style="text;strokeColor=none;fillColor=none;align=left;verticalAlign=top;spacingLeft=4;spacingRight=4;overflow=hidden;rotatable=0;points=[[0,0.5],[1,0.5]];portConstraint=eastwest;whiteSpace=wrap;html=1;" parent="b3Ar11hoiHgudYBqo-IY-190" vertex="1">
          <mxGeometry y="26" width="240" height="64" as="geometry" />
        </mxCell>
        <mxCell id="b3Ar11hoiHgudYBqo-IY-192" value="" style="line;strokeWidth=1;fillColor=none;align=left;verticalAlign=middle;spacingTop=-1;spacingLeft=3;spacingRight=3;rotatable=0;labelPosition=right;points=[];portConstraint=eastwest;strokeColor=inherit;" parent="b3Ar11hoiHgudYBqo-IY-190" vertex="1">
          <mxGeometry y="90" width="240" height="8" as="geometry" />
        </mxCell>
        <mxCell id="b3Ar11hoiHgudYBqo-IY-193" value="+&amp;nbsp;createReservation(User, Vehicle, DateTime, DateTime, ReservationType): Reservation&lt;div&gt;&lt;br&gt;&lt;/div&gt;&lt;div&gt;&lt;span class=&quot;hljs-type&quot;&gt;+ boolean&lt;/span&gt; &lt;span class=&quot;hljs-title function_&quot;&gt;cancelReservation&lt;/span&gt;&lt;span class=&quot;hljs-params&quot;&gt;(Reservation reservation)&lt;/span&gt;&lt;br&gt;&lt;/div&gt;&lt;div&gt;&lt;span class=&quot;hljs-params&quot;&gt;&lt;br&gt;&lt;/span&gt;&lt;/div&gt;&lt;div&gt;&lt;span class=&quot;hljs-params&quot;&gt;+&amp;nbsp;&lt;/span&gt;&lt;span style=&quot;background-color: initial;&quot; class=&quot;hljs-type&quot;&gt;boolean&lt;/span&gt;&lt;span style=&quot;background-color: initial;&quot;&gt; &lt;/span&gt;&lt;span style=&quot;background-color: initial;&quot; class=&quot;hljs-title function_&quot;&gt;completePayment&lt;/span&gt;&lt;span style=&quot;background-color: initial;&quot; class=&quot;hljs-params&quot;&gt;(Reservation reservation)&lt;/span&gt;&lt;/div&gt;" style="text;strokeColor=none;fillColor=none;align=left;verticalAlign=top;spacingLeft=4;spacingRight=4;overflow=hidden;rotatable=0;points=[[0,0.5],[1,0.5]];portConstraint=eastwest;whiteSpace=wrap;html=1;" parent="b3Ar11hoiHgudYBqo-IY-190" vertex="1">
          <mxGeometry y="98" width="240" height="162" as="geometry" />
        </mxCell>
        <mxCell id="b3Ar11hoiHgudYBqo-IY-198" style="edgeStyle=orthogonalEdgeStyle;rounded=0;orthogonalLoop=1;jettySize=auto;html=1;" parent="WIyWlLk6GJQsqaUBKTNV-1" source="b3Ar11hoiHgudYBqo-IY-194" target="b3Ar11hoiHgudYBqo-IY-37" edge="1">
          <mxGeometry relative="1" as="geometry" />
        </mxCell>
        <mxCell id="b3Ar11hoiHgudYBqo-IY-194" value="VehicleService" style="swimlane;fontStyle=1;align=center;verticalAlign=top;childLayout=stackLayout;horizontal=1;startSize=26;horizontalStack=0;resizeParent=1;resizeParentMax=0;resizeLast=0;collapsible=1;marginBottom=0;whiteSpace=wrap;html=1;" parent="WIyWlLk6GJQsqaUBKTNV-1" vertex="1">
          <mxGeometry x="174" y="450" width="240" height="200" as="geometry" />
        </mxCell>
        <mxCell id="b3Ar11hoiHgudYBqo-IY-195" value="+ VehicleInventory vehicleInventory" style="text;strokeColor=none;fillColor=none;align=left;verticalAlign=top;spacingLeft=4;spacingRight=4;overflow=hidden;rotatable=0;points=[[0,0.5],[1,0.5]];portConstraint=eastwest;whiteSpace=wrap;html=1;" parent="b3Ar11hoiHgudYBqo-IY-194" vertex="1">
          <mxGeometry y="26" width="240" height="64" as="geometry" />
        </mxCell>
        <mxCell id="b3Ar11hoiHgudYBqo-IY-196" value="" style="line;strokeWidth=1;fillColor=none;align=left;verticalAlign=middle;spacingTop=-1;spacingLeft=3;spacingRight=3;rotatable=0;labelPosition=right;points=[];portConstraint=eastwest;strokeColor=inherit;" parent="b3Ar11hoiHgudYBqo-IY-194" vertex="1">
          <mxGeometry y="90" width="240" height="8" as="geometry" />
        </mxCell>
        <mxCell id="b3Ar11hoiHgudYBqo-IY-197" value="+ addVehicle(Vehicle vehicle)&lt;div&gt;+ removeVehicle(vehicle vehicle)&lt;/div&gt;&lt;div&gt;+ getAllVehicles()&lt;/div&gt;&lt;div&gt;+ isVehicleAvailable(int id,from,to)&lt;/div&gt;" style="text;strokeColor=none;fillColor=none;align=left;verticalAlign=top;spacingLeft=4;spacingRight=4;overflow=hidden;rotatable=0;points=[[0,0.5],[1,0.5]];portConstraint=eastwest;whiteSpace=wrap;html=1;" parent="b3Ar11hoiHgudYBqo-IY-194" vertex="1">
          <mxGeometry y="98" width="240" height="102" as="geometry" />
        </mxCell>
        <mxCell id="b3Ar11hoiHgudYBqo-IY-199" style="edgeStyle=orthogonalEdgeStyle;rounded=0;orthogonalLoop=1;jettySize=auto;html=1;entryX=1.008;entryY=1.019;entryDx=0;entryDy=0;entryPerimeter=0;" parent="WIyWlLk6GJQsqaUBKTNV-1" source="b3Ar11hoiHgudYBqo-IY-38" target="b3Ar11hoiHgudYBqo-IY-191" edge="1">
          <mxGeometry relative="1" as="geometry" />
        </mxCell>
        <mxCell id="b3Ar11hoiHgudYBqo-IY-200" style="edgeStyle=orthogonalEdgeStyle;rounded=0;orthogonalLoop=1;jettySize=auto;html=1;entryX=0.985;entryY=0.924;entryDx=0;entryDy=0;entryPerimeter=0;" parent="WIyWlLk6GJQsqaUBKTNV-1" source="b3Ar11hoiHgudYBqo-IY-38" target="b3Ar11hoiHgudYBqo-IY-197" edge="1">
          <mxGeometry relative="1" as="geometry">
            <Array as="points">
              <mxPoint x="935" y="790" />
              <mxPoint x="410" y="790" />
            </Array>
          </mxGeometry>
        </mxCell>
        <mxCell id="b3Ar11hoiHgudYBqo-IY-201" value="HAS-A" style="text;html=1;align=center;verticalAlign=middle;resizable=0;points=[];autosize=1;strokeColor=none;fillColor=none;" parent="WIyWlLk6GJQsqaUBKTNV-1" vertex="1">
          <mxGeometry x="700" y="758" width="60" height="30" as="geometry" />
        </mxCell>
      </root>
    </mxGraphModel>
  </diagram>
</mxfile>
